	<svg
		width="20"
		height="19"
		viewBox="0 0 20 19"
		fill="none"
		xmlns="http://www.w3.org/2000/svg"
	>
		<path
			d="M4.98959 0.585188C5.87425 0.434483 6.78147 0.484197 7.64436 0.730666C8.50725 0.977135 9.30382 1.41408 9.97535 2.00928L10.0123 2.04226L10.0463 2.01228C10.6872 1.44993 11.4407 1.0307 12.2565 0.782545C13.0723 0.53439 13.9316 0.46302 14.7772 0.573196L15.0231 0.609173C16.0889 0.793165 17.0851 1.26191 17.9063 1.96578C18.7274 2.66964 19.3428 3.58242 19.6874 4.60745C20.0321 5.63249 20.093 6.73162 19.8638 7.78846C19.6346 8.84529 19.1239 9.82049 18.3856 10.6108L18.2057 10.7957L18.1577 10.8366L10.711 18.2109C10.5392 18.381 10.3115 18.483 10.0702 18.4981C9.82888 18.5131 9.59028 18.4402 9.39861 18.2929L9.30465 18.2109L1.81501 10.7937C1.02158 10.0218 0.457317 9.04546 0.184698 7.97274C-0.0879202 6.90001 -0.0582509 5.77277 0.27042 4.71586C0.599091 3.65896 1.21394 2.71363 2.04687 1.98457C2.8798 1.2555 3.8983 0.771166 4.98959 0.585188Z"
			fill="#2C4EA5"
		/>
	</svg>
