  <svg
    width="20"
    height="21"
    viewBox="0 0 20 21"
    fill="none"
    xmlns="http://www.w3.org/2000/svg"
  >
    <path
      d="M10.4333 0.660044C10.3126 0.556758 10.1589 0.5 10 0.5C9.8411 0.5 9.68742 0.556758 9.56667 0.660044L0 8.86004V18.5C0 19.0305 0.210714 19.5392 0.585786 19.9143C0.960859 20.2893 1.46957 20.5 2 20.5H7.33333C7.51014 20.5 7.67971 20.4298 7.80474 20.3048C7.92976 20.1798 8 20.0102 8 19.8334V15.8334C8 15.3029 8.21071 14.7942 8.58579 14.4192C8.96086 14.0441 9.46957 13.8334 10 13.8334C10.5304 13.8334 11.0391 14.0441 11.4142 14.4192C11.7893 14.7942 12 15.3029 12 15.8334V19.8334C12 20.0102 12.0702 20.1798 12.1953 20.3048C12.3203 20.4298 12.4899 20.5 12.6667 20.5H18C18.5304 20.5 19.0391 20.2893 19.4142 19.9143C19.7893 19.5392 20 19.0305 20 18.5V8.86004L10.4333 0.660044Z"
      fill="#2C4EA5"
    />
  </svg>
