  <svg
    width="33"
    height="32"
    viewBox="0 0 33 32"
    fill="none"
    xmlns="http://www.w3.org/2000/svg"
  >
    <g clip-path="url(#clip0_1334_10981)">
      <path
        d="M5.80918 11.5188C5.55031 11.7234 5.39092 12.0039 5.36274 12.3046H5.36134L4.13398 25.4081C4.10304 25.7383 4.15225 26.0705 4.27853 26.3836C4.40481 26.6967 4.60542 26.9841 4.86773 27.2276C5.13003 27.471 5.44835 27.6653 5.80265 27.7983C6.15695 27.9312 6.53954 27.9999 6.92635 28H26.0736C26.4605 27.9999 26.8431 27.9312 27.1973 27.7983C27.5516 27.6653 27.87 27.471 28.1323 27.2276C28.3946 26.9841 28.5952 26.6967 28.7215 26.3836C28.8477 26.0705 28.897 25.7383 28.866 25.4081L27.6373 12.3046C27.6091 12.0039 27.4497 11.7234 27.1908 11.5188C26.932 11.3142 26.5926 11.2006 26.2404 11.2007H16.5H6.75962C6.40738 11.2006 6.06804 11.3142 5.80918 11.5188Z"
        fill="#2C4EA5"
        stroke="#2C4EA5"
        stroke-width="1.37814"
        stroke-linecap="round"
        stroke-linejoin="round"
      />
      <path
        d="M22.1032 14.7996V8.79981C22.1032 7.52682 21.5128 6.30597 20.4618 5.40583C19.4107 4.50569 17.9853 4 16.4989 4C15.0125 4 13.587 4.50569 12.536 5.40583C11.485 6.30597 10.8945 7.52682 10.8945 8.79981V14.7996"
        stroke="#2C4EA5"
        stroke-width="1.37814"
        stroke-linecap="round"
        stroke-linejoin="round"
      />
    </g>
    <defs>
      <clipPath id="clip0_1334_10981">
        <rect width="33" height="32" fill="white" />
      </clipPath>
    </defs>
  </svg>
